<svg width="48" height="48" viewBox="0 0 48 48" fill="none" xmlns="http://www.w3.org/2000/svg">
<path d="M46 9H2V39H46V9Z" fill="#ECEFF1"/>
<path d="M24 9H2V39H24V9Z" fill="#33691E"/>
<path d="M30.733 20.0006C28.524 16.1746 23.632 14.8646 19.807 17.0726C15.982 19.2806 14.671 24.1736 16.879 27.9986C19.087 31.8236 23.98 33.1346 27.805 30.9266C29.021 30.2246 30.031 29.2146 30.733 27.9986C28.524 30.7576 24.497 31.2036 21.739 28.9946C18.981 26.7856 18.534 22.7586 20.743 20.0006C22.952 17.2426 26.979 16.7956 29.737 19.0046C30.105 19.2986 30.439 19.6326 30.733 20.0006ZM31.199 24.2136L24 21.8676L28.479 27.9996V20.4276L24 26.5596L31.199 24.2136Z" fill="#D21034"/>
</svg>
