<svg width="48" height="48" viewBox="0 0 48 48" fill="none" xmlns="http://www.w3.org/2000/svg">
<path d="M46 9H2V39H46V9Z" fill="#64B5F6"/>
<path d="M46 19H2V29H46V19Z" fill="#F5F5F5"/>
<path d="M23.827 24.0717L25.384 27.4637C25.384 27.4637 25.411 27.5287 25.454 27.5107C25.497 27.4927 25.47 27.4277 25.47 27.4277L24.172 23.9277L23.827 24.0717ZM24.136 25.2477C24.117 25.7637 24.434 26.0477 24.393 26.5077C24.352 26.9687 24.605 27.2287 24.663 27.4077C24.722 27.5867 24.6 27.6937 24.652 27.7197C24.705 27.7457 24.82 27.6037 24.782 27.3487C24.744 27.0937 24.551 27.0187 24.596 26.4557C24.641 25.8927 24.366 25.7617 24.433 25.2487" fill="#FFC107"/>
<path d="M24.136 25.2477C24.117 25.7637 24.434 26.0477 24.393 26.5077C24.352 26.9687 24.605 27.2287 24.663 27.4077C24.722 27.5867 24.6 27.6937 24.652 27.7197C24.705 27.7457 24.82 27.6037 24.782 27.3487C24.744 27.0937 24.551 27.0187 24.596 26.4557C24.641 25.8927 24.366 25.7617 24.433 25.2487M23.827 24.0717L25.384 27.4637C25.384 27.4637 25.411 27.5287 25.454 27.5107C25.497 27.4927 25.47 27.4277 25.47 27.4277L24.172 23.9277L23.827 24.0717Z" stroke="#BF360C" stroke-width="0.0608"/>
<path d="M23.813 24L23.953 27.73C23.953 27.73 23.953 27.8 24 27.8C24.047 27.8 24.047 27.73 24.047 27.73L24.187 24H23.813ZM23.648 25.205C23.433 25.674 23.618 26.058 23.403 26.468C23.188 26.878 23.322 27.215 23.308 27.403C23.294 27.591 23.14 27.643 23.179 27.687C23.218 27.731 23.379 27.644 23.441 27.394C23.504 27.144 23.354 27 23.611 26.498C23.868 25.996 23.664 25.769 23.922 25.32" fill="#FFC107"/>
<path d="M23.648 25.205C23.433 25.674 23.618 26.058 23.403 26.468C23.188 26.878 23.322 27.215 23.308 27.403C23.294 27.591 23.14 27.643 23.179 27.687C23.218 27.731 23.379 27.644 23.441 27.394C23.504 27.144 23.354 27 23.611 26.498C23.868 25.996 23.664 25.769 23.922 25.32M23.813 24L23.953 27.73C23.953 27.73 23.953 27.8 24 27.8C24.047 27.8 24.047 27.73 24.047 27.73L24.187 24H23.813Z" stroke="#BF360C" stroke-width="0.0608"/>
<path d="M23.827 23.9277L22.529 27.4277C22.529 27.4277 22.502 27.4927 22.545 27.5107C22.588 27.5287 22.615 27.4637 22.615 27.4637L24.172 24.0717L23.827 23.9277ZM23.213 24.9787C22.835 25.3297 22.859 25.7547 22.503 26.0517C22.148 26.3487 22.143 26.7117 22.058 26.8797C21.973 27.0477 21.811 27.0377 21.83 27.0927C21.849 27.1477 22.031 27.1297 22.184 26.9227C22.338 26.7157 22.254 26.5257 22.684 26.1597C23.114 25.7937 23.012 25.5067 23.422 25.1907" fill="#FFC107"/>
<path d="M23.213 24.9787C22.835 25.3297 22.859 25.7547 22.503 26.0517C22.148 26.3487 22.143 26.7117 22.058 26.8797C21.973 27.0477 21.811 27.0377 21.83 27.0927C21.849 27.1477 22.031 27.1297 22.184 26.9227C22.338 26.7157 22.254 26.5257 22.684 26.1597C23.114 25.7937 23.012 25.5067 23.422 25.1907M23.827 23.9277L22.529 27.4277C22.529 27.4277 22.502 27.4927 22.545 27.5107C22.588 27.5287 22.615 27.4637 22.615 27.4637L24.172 24.0717L23.827 23.9277Z" stroke="#BF360C" stroke-width="0.0608"/>
<path d="M23.868 23.8682L21.33 26.6052C21.33 26.6052 21.28 26.6552 21.313 26.6882C21.346 26.7212 21.396 26.6712 21.396 26.6712L24.133 24.1332L23.868 23.8682ZM22.899 24.6032C22.415 24.7832 22.274 25.1852 21.833 25.3232C21.392 25.4612 21.248 25.7942 21.105 25.9172C20.962 26.0402 20.816 25.9682 20.813 26.0262C20.81 26.0842 20.984 26.1372 21.205 26.0052C21.426 25.8732 21.422 25.6652 21.959 25.4922C22.496 25.3192 22.512 25.0142 23.012 24.8792" fill="#FFC107"/>
<path d="M22.899 24.6032C22.415 24.7832 22.274 25.1852 21.833 25.3232C21.392 25.4612 21.248 25.7942 21.105 25.9172C20.962 26.0402 20.816 25.9682 20.813 26.0262C20.81 26.0842 20.984 26.1372 21.205 26.0052C21.426 25.8732 21.422 25.6652 21.959 25.4922C22.496 25.3192 22.512 25.0142 23.012 24.8792M23.868 23.8682L21.33 26.6052C21.33 26.6052 21.28 26.6552 21.313 26.6882C21.346 26.7212 21.396 26.6712 21.396 26.6712L24.133 24.1332L23.868 23.8682Z" stroke="#BF360C" stroke-width="0.0608"/>
<path d="M24.236 25.3357C24.261 25.8307 24.542 26.0507 24.487 26.5017C24.608 26.1447 24.316 25.8677 24.333 25.3407L24.236 25.3357ZM23.914 24.0407L24.98 26.3707L24.086 23.9697" fill="#BF360C"/>
<path d="M23.707 25.3239C23.54 25.7909 23.716 26.1009 23.492 26.4969C23.741 26.2129 23.577 25.8459 23.794 25.3649L23.707 25.3239ZM23.904 24.0049L23.998 26.5649L24.092 24.0039" fill="#BF360C"/>
<path d="M23.222 25.1108C22.889 25.4788 22.933 25.8328 22.574 26.1128C22.912 25.9458 22.901 25.5438 23.286 25.1828L23.222 25.1108ZM23.91 23.9678L23.017 26.3688L24.083 24.0388" fill="#BF360C"/>
<path d="M22.856 24.7285C22.408 24.9415 22.313 25.2845 21.874 25.4065C22.25 25.3815 22.394 25.0065 22.888 24.8195L22.856 24.7285ZM23.929 23.9355L22.185 25.8125L24.062 24.0685" fill="#BF360C"/>
<path d="M23.928 23.8271L20.536 25.3841C20.536 25.3841 20.471 25.4111 20.489 25.4541C20.507 25.4971 20.572 25.4701 20.572 25.4701L24.072 24.1721L23.928 23.8271ZM22.752 24.1361C22.236 24.1171 21.952 24.4341 21.492 24.3931C21.031 24.3521 20.771 24.6051 20.592 24.6631C20.413 24.7221 20.306 24.6001 20.28 24.6521C20.255 24.7051 20.396 24.8201 20.651 24.7821C20.906 24.7441 20.981 24.5511 21.544 24.5971C22.107 24.6421 22.238 24.3671 22.751 24.4341" fill="#FFC107"/>
<path d="M22.752 24.1361C22.236 24.1171 21.952 24.4341 21.492 24.3931C21.031 24.3521 20.771 24.6051 20.592 24.6631C20.413 24.7221 20.306 24.6001 20.28 24.6521C20.255 24.7051 20.396 24.8201 20.651 24.7821C20.906 24.7441 20.981 24.5511 21.544 24.5971C22.107 24.6421 22.238 24.3671 22.751 24.4341M23.928 23.8271L20.536 25.3841C20.536 25.3841 20.471 25.4111 20.489 25.4541C20.507 25.4971 20.572 25.4701 20.572 25.4701L24.072 24.1721L23.928 23.8271Z" stroke="#BF360C" stroke-width="0.0608"/>
<path d="M24 23.8132L20.27 23.9532C20.27 23.9532 20.2 23.9532 20.2 24.0002C20.2 24.0472 20.27 24.0472 20.27 24.0472L24 24.1872V23.8132ZM22.795 23.6482C22.326 23.4332 21.942 23.6182 21.532 23.4032C21.122 23.1882 20.785 23.3232 20.597 23.3082C20.409 23.2942 20.357 23.1402 20.313 23.1792C20.269 23.2182 20.356 23.3792 20.606 23.4412C20.856 23.5042 21 23.3542 21.502 23.6112C22.004 23.8682 22.231 23.6642 22.68 23.9222" fill="#FFC107"/>
<path d="M22.795 23.6482C22.326 23.4332 21.942 23.6182 21.532 23.4032C21.122 23.1882 20.785 23.3232 20.597 23.3082C20.409 23.2942 20.357 23.1402 20.313 23.1792C20.269 23.2182 20.356 23.3792 20.606 23.4412C20.856 23.5042 21 23.3542 21.502 23.6112C22.004 23.8682 22.231 23.6642 22.68 23.9222M24 23.8132L20.27 23.9532C20.27 23.9532 20.2 23.9532 20.2 24.0002C20.2 24.0472 20.27 24.0472 20.27 24.0472L24 24.1872V23.8132Z" stroke="#BF360C" stroke-width="0.0608"/>
<path d="M24.072 23.8267L20.572 22.5287C20.572 22.5287 20.507 22.5017 20.489 22.5447C20.471 22.5877 20.536 22.6147 20.536 22.6147L23.928 24.1717L24.072 23.8267ZM23.021 23.2127C22.67 22.8347 22.245 22.8587 21.948 22.5027C21.651 22.1477 21.288 22.1427 21.12 22.0577C20.952 21.9727 20.962 21.8107 20.907 21.8297C20.852 21.8487 20.87 22.0307 21.077 22.1837C21.284 22.3377 21.474 22.2537 21.84 22.6837C22.206 23.1137 22.493 23.0117 22.809 23.4217" fill="#FFC107"/>
<path d="M23.021 23.2127C22.67 22.8347 22.245 22.8587 21.948 22.5027C21.651 22.1477 21.288 22.1427 21.12 22.0577C20.952 21.9727 20.962 21.8107 20.907 21.8297C20.852 21.8487 20.87 22.0307 21.077 22.1837C21.284 22.3377 21.474 22.2537 21.84 22.6837C22.206 23.1137 22.493 23.0117 22.809 23.4217M24.072 23.8267L20.572 22.5287C20.572 22.5287 20.507 22.5017 20.489 22.5447C20.471 22.5877 20.536 22.6147 20.536 22.6147L23.928 24.1717L24.072 23.8267Z" stroke="#BF360C" stroke-width="0.0608"/>
<path d="M24.132 23.8675L21.395 21.3295C21.395 21.3295 21.345 21.2795 21.312 21.3125C21.279 21.3455 21.329 21.3955 21.329 21.3955L23.867 24.1325L24.132 23.8675ZM23.397 22.8985C23.217 22.4145 22.815 22.2735 22.677 21.8325C22.539 21.3915 22.206 21.2475 22.083 21.1045C21.96 20.9615 22.032 20.8155 21.974 20.8125C21.915 20.8095 21.863 20.9835 21.995 21.2045C22.127 21.4255 22.335 21.4215 22.508 21.9585C22.681 22.4955 22.986 22.5115 23.121 23.0115" fill="#FFC107"/>
<path d="M23.397 22.8985C23.217 22.4145 22.815 22.2735 22.677 21.8325C22.539 21.3915 22.206 21.2475 22.083 21.1045C21.96 20.9615 22.032 20.8155 21.974 20.8125C21.915 20.8095 21.863 20.9835 21.995 21.2045C22.127 21.4255 22.335 21.4215 22.508 21.9585C22.681 22.4955 22.986 22.5115 23.121 23.0115M24.132 23.8675L21.395 21.3295C21.395 21.3295 21.345 21.2795 21.312 21.3125C21.279 21.3455 21.329 21.3955 21.329 21.3955L23.867 24.1325L24.132 23.8675Z" stroke="#BF360C" stroke-width="0.0608"/>
<path d="M22.664 24.2361C22.169 24.2611 21.949 24.5421 21.498 24.4871C21.855 24.6081 22.132 24.3161 22.659 24.3331L22.664 24.2361ZM23.959 23.9141L21.629 24.9801L24.03 24.0861" fill="#BF360C"/>
<path d="M22.676 23.7072C22.209 23.5402 21.899 23.7162 21.503 23.4922C21.787 23.7412 22.154 23.5772 22.635 23.7942L22.676 23.7072ZM23.995 23.9052L21.435 23.9992L23.996 24.0932" fill="#BF360C"/>
<path d="M22.889 23.2222C22.521 22.8892 22.167 22.9332 21.887 22.5752C22.054 22.9132 22.456 22.9022 22.817 23.2872L22.889 23.2222ZM24.032 23.9102L21.631 23.0172L23.961 24.0832" fill="#BF360C"/>
<path d="M23.271 22.856C23.059 22.408 22.715 22.313 22.593 21.874C22.618 22.25 22.993 22.394 23.18 22.888L23.271 22.856ZM24.064 23.929L22.187 22.185L23.931 24.062" fill="#BF360C"/>
<path d="M24.173 23.9282L22.616 20.5362C22.616 20.5362 22.589 20.4712 22.546 20.4892C22.503 20.5072 22.53 20.5722 22.53 20.5722L23.828 24.0722L24.173 23.9282ZM23.864 22.7522C23.883 22.2362 23.566 21.9522 23.607 21.4922C23.648 21.0312 23.395 20.7712 23.337 20.5922C23.278 20.4132 23.4 20.3062 23.348 20.2802C23.295 20.2552 23.18 20.3962 23.218 20.6512C23.256 20.9062 23.449 20.9812 23.403 21.5442C23.358 22.1072 23.633 22.2382 23.566 22.7512" fill="#FFC107"/>
<path d="M23.864 22.7522C23.883 22.2362 23.566 21.9522 23.607 21.4922C23.648 21.0312 23.395 20.7712 23.337 20.5922C23.278 20.4132 23.4 20.3062 23.348 20.2802C23.295 20.2552 23.18 20.3962 23.218 20.6512C23.256 20.9062 23.449 20.9812 23.403 21.5442C23.358 22.1072 23.633 22.2382 23.566 22.7512M24.173 23.9282L22.616 20.5362C22.616 20.5362 22.589 20.4712 22.546 20.4892C22.503 20.5072 22.53 20.5722 22.53 20.5722L23.828 24.0722L24.173 23.9282Z" stroke="#BF360C" stroke-width="0.0608"/>
<path d="M24.187 24.0002L24.047 20.2702C24.047 20.2702 24.047 20.2002 24 20.2002C23.953 20.2002 23.953 20.2702 23.953 20.2702L23.813 24.0002H24.187ZM24.352 22.7952C24.567 22.3262 24.382 21.9422 24.597 21.5322C24.812 21.1222 24.678 20.7852 24.692 20.5972C24.706 20.4092 24.86 20.3572 24.821 20.3132C24.782 20.2692 24.621 20.3562 24.559 20.6062C24.496 20.8562 24.646 21.0002 24.389 21.5022C24.132 22.0042 24.336 22.2312 24.078 22.6802" fill="#FFC107"/>
<path d="M24.352 22.7952C24.567 22.3262 24.382 21.9422 24.597 21.5322C24.812 21.1222 24.678 20.7852 24.692 20.5972C24.706 20.4092 24.86 20.3572 24.821 20.3132C24.782 20.2692 24.621 20.3562 24.559 20.6062C24.496 20.8562 24.646 21.0002 24.389 21.5022C24.132 22.0042 24.336 22.2312 24.078 22.6802M24.187 24.0002L24.047 20.2702C24.047 20.2702 24.047 20.2002 24 20.2002C23.953 20.2002 23.953 20.2702 23.953 20.2702L23.813 24.0002H24.187Z" stroke="#BF360C" stroke-width="0.0608"/>
<path d="M24.173 24.0725L25.471 20.5725C25.471 20.5725 25.498 20.5075 25.455 20.4895C25.412 20.4715 25.385 20.5365 25.385 20.5365L23.828 23.9285L24.173 24.0725ZM24.787 23.0215C25.165 22.6705 25.141 22.2455 25.497 21.9485C25.852 21.6515 25.857 21.2885 25.942 21.1205C26.027 20.9525 26.189 20.9625 26.17 20.9075C26.151 20.8525 25.969 20.8705 25.816 21.0775C25.662 21.2845 25.746 21.4745 25.316 21.8405C24.886 22.2065 24.988 22.4935 24.578 22.8095" fill="#FFC107"/>
<path d="M24.787 23.0215C25.165 22.6705 25.141 22.2455 25.497 21.9485C25.852 21.6515 25.857 21.2885 25.942 21.1205C26.027 20.9525 26.189 20.9625 26.17 20.9075C26.151 20.8525 25.969 20.8705 25.816 21.0775C25.662 21.2845 25.746 21.4745 25.316 21.8405C24.886 22.2065 24.988 22.4935 24.578 22.8095M24.173 24.0725L25.471 20.5725C25.471 20.5725 25.498 20.5075 25.455 20.4895C25.412 20.4715 25.385 20.5365 25.385 20.5365L23.828 23.9285L24.173 24.0725Z" stroke="#BF360C" stroke-width="0.0608"/>
<path d="M24.132 24.132L26.67 21.395C26.67 21.395 26.72 21.345 26.687 21.312C26.654 21.279 26.604 21.329 26.604 21.329L23.867 23.867L24.132 24.132ZM25.101 23.397C25.585 23.217 25.726 22.815 26.167 22.677C26.608 22.539 26.752 22.205 26.895 22.083C27.038 21.96 27.184 22.032 27.187 21.974C27.19 21.916 27.016 21.863 26.795 21.995C26.574 22.127 26.578 22.335 26.041 22.508C25.504 22.681 25.488 22.986 24.988 23.121" fill="#FFC107"/>
<path d="M25.101 23.397C25.585 23.217 25.726 22.815 26.167 22.677C26.608 22.539 26.752 22.205 26.895 22.083C27.038 21.96 27.184 22.032 27.187 21.974C27.19 21.916 27.016 21.863 26.795 21.995C26.574 22.127 26.578 22.335 26.041 22.508C25.504 22.681 25.488 22.986 24.988 23.121M24.132 24.132L26.67 21.395C26.67 21.395 26.72 21.345 26.687 21.312C26.654 21.279 26.604 21.329 26.604 21.329L23.867 23.867L24.132 24.132Z" stroke="#BF360C" stroke-width="0.0608"/>
<path d="M23.764 22.664C23.739 22.169 23.458 21.949 23.513 21.498C23.392 21.855 23.684 22.132 23.667 22.659L23.764 22.664ZM24.086 23.959L23.02 21.629L23.914 24.03" fill="#BF360C"/>
<path d="M24.293 22.6756C24.46 22.2086 24.284 21.8986 24.508 21.5026C24.259 21.7856 24.423 22.1536 24.206 22.6346L24.293 22.6756ZM24.096 23.9946L24.002 21.4336L23.908 23.9946" fill="#BF360C"/>
<path d="M24.778 22.8889C25.111 22.5209 25.067 22.1669 25.426 21.8869C25.088 22.0539 25.099 22.4559 24.714 22.8169L24.778 22.8889ZM24.09 24.0319L24.983 21.6309L23.917 23.9609" fill="#BF360C"/>
<path d="M25.144 23.2705C25.592 23.0585 25.687 22.7145 26.126 22.5925C25.75 22.6175 25.606 22.9925 25.112 23.1795L25.144 23.2705ZM24.071 24.0635L25.815 22.1865L23.938 23.9305" fill="#BF360C"/>
<path d="M24.072 24.1729L27.464 22.6159C27.464 22.6159 27.529 22.5889 27.511 22.5459C27.493 22.5029 27.428 22.5299 27.428 22.5299L23.928 23.8279L24.072 24.1729ZM25.248 23.8639C25.764 23.8829 26.048 23.5659 26.508 23.6069C26.969 23.6479 27.229 23.3949 27.408 23.3369C27.587 23.2779 27.694 23.3999 27.72 23.3479C27.745 23.2949 27.604 23.1799 27.349 23.2179C27.094 23.2559 27.019 23.4489 26.456 23.4029C25.893 23.3579 25.762 23.6329 25.249 23.5659" fill="#FFC107"/>
<path d="M25.248 23.8639C25.764 23.8829 26.048 23.5659 26.508 23.6069C26.969 23.6479 27.229 23.3949 27.408 23.3369C27.587 23.2779 27.694 23.3999 27.72 23.3479C27.745 23.2949 27.604 23.1799 27.349 23.2179C27.094 23.2559 27.019 23.4489 26.456 23.4029C25.893 23.3579 25.762 23.6329 25.249 23.5659M24.072 24.1729L27.464 22.6159C27.464 22.6159 27.529 22.5889 27.511 22.5459C27.493 22.5029 27.428 22.5299 27.428 22.5299L23.928 23.8279L24.072 24.1729Z" stroke="#BF360C" stroke-width="0.0608"/>
<path d="M24 24.1875L27.73 24.0475C27.73 24.0475 27.8 24.0475 27.8 24.0005C27.8 23.9535 27.73 23.9535 27.73 23.9535L24 23.8135V24.1875ZM25.205 24.3525C25.674 24.5675 26.058 24.3825 26.468 24.5975C26.878 24.8125 27.215 24.6775 27.403 24.6925C27.591 24.7065 27.643 24.8605 27.687 24.8215C27.731 24.7825 27.644 24.6215 27.394 24.5595C27.144 24.4965 27 24.6465 26.498 24.3895C25.996 24.1325 25.769 24.3365 25.32 24.0785" fill="#FFC107"/>
<path d="M25.205 24.3525C25.674 24.5675 26.058 24.3825 26.468 24.5975C26.878 24.8125 27.215 24.6775 27.403 24.6925C27.591 24.7065 27.643 24.8605 27.687 24.8215C27.731 24.7825 27.644 24.6215 27.394 24.5595C27.144 24.4965 27 24.6465 26.498 24.3895C25.996 24.1325 25.769 24.3365 25.32 24.0785M24 24.1875L27.73 24.0475C27.73 24.0475 27.8 24.0475 27.8 24.0005C27.8 23.9535 27.73 23.9535 27.73 23.9535L24 23.8135V24.1875Z" stroke="#BF360C" stroke-width="0.0608"/>
<path d="M23.928 24.1731L27.428 25.4711C27.428 25.4711 27.493 25.4981 27.511 25.4551C27.529 25.4121 27.464 25.3851 27.464 25.3851L24.072 23.8281L23.928 24.1731ZM24.979 24.7871C25.33 25.1651 25.755 25.1411 26.052 25.4971C26.349 25.8521 26.712 25.8571 26.88 25.9421C27.048 26.0271 27.038 26.1891 27.093 26.1701C27.148 26.1511 27.13 25.9691 26.923 25.8161C26.716 25.6621 26.526 25.7461 26.16 25.3161C25.794 24.8861 25.507 24.9881 25.191 24.5781" fill="#FFC107"/>
<path d="M24.979 24.7871C25.33 25.1651 25.755 25.1411 26.052 25.4971C26.349 25.8521 26.712 25.8571 26.88 25.9421C27.048 26.0271 27.038 26.1891 27.093 26.1701C27.148 26.1511 27.13 25.9691 26.923 25.8161C26.716 25.6621 26.526 25.7461 26.16 25.3161C25.794 24.8861 25.507 24.9881 25.191 24.5781M23.928 24.1731L27.428 25.4711C27.428 25.4711 27.493 25.4981 27.511 25.4551C27.529 25.4121 27.464 25.3851 27.464 25.3851L24.072 23.8281L23.928 24.1731Z" stroke="#BF360C" stroke-width="0.0608"/>
<path d="M23.868 24.1322L26.605 26.6702C26.605 26.6702 26.655 26.7202 26.688 26.6872C26.721 26.6542 26.671 26.6042 26.671 26.6042L24.133 23.8672L23.868 24.1322ZM24.603 25.1012C24.783 25.5852 25.185 25.7262 25.323 26.1672C25.461 26.6082 25.794 26.7522 25.917 26.8952C26.04 27.0382 25.968 27.1842 26.026 27.1872C26.084 27.1902 26.137 27.0152 26.005 26.7952C25.873 26.5742 25.665 26.5782 25.492 26.0412C25.319 25.5042 25.014 25.4882 24.879 24.9882" fill="#FFC107"/>
<path d="M24.603 25.1012C24.783 25.5852 25.185 25.7262 25.323 26.1672C25.461 26.6082 25.794 26.7522 25.917 26.8952C26.04 27.0382 25.968 27.1842 26.026 27.1872C26.084 27.1902 26.137 27.0152 26.005 26.7952C25.873 26.5742 25.665 26.5782 25.492 26.0412C25.319 25.5042 25.014 25.4882 24.879 24.9882M23.868 24.1322L26.605 26.6702C26.605 26.6702 26.655 26.7202 26.688 26.6872C26.721 26.6542 26.671 26.6042 26.671 26.6042L24.133 23.8672L23.868 24.1322Z" stroke="#BF360C" stroke-width="0.0608"/>
<path d="M25.336 23.7635C25.831 23.7385 26.051 23.4575 26.502 23.5125C26.145 23.3915 25.868 23.6835 25.341 23.6665L25.336 23.7635ZM24.041 24.0855L26.371 23.0195L23.97 23.9125" fill="#BF360C"/>
<path d="M25.324 24.2932C25.791 24.4602 26.101 24.2842 26.497 24.5082C26.213 24.2592 25.846 24.4232 25.365 24.2062L25.324 24.2932ZM24.005 24.0962L26.565 24.0022L24.004 23.9082" fill="#BF360C"/>
<path d="M25.111 24.778C25.479 25.111 25.833 25.067 26.113 25.426C25.946 25.088 25.544 25.099 25.183 24.714L25.111 24.778ZM23.968 24.09L26.369 24.983L24.039 23.917" fill="#BF360C"/>
<path d="M24.729 25.1445C24.942 25.5925 25.285 25.6875 25.407 26.1265C25.382 25.7505 25.007 25.6065 24.82 25.1125L24.729 25.1445ZM23.936 24.0715L25.813 25.8155L24.069 23.9385" fill="#BF360C"/>
<path d="M24 25.5205C24.8395 25.5205 25.52 24.8399 25.52 24.0005C25.52 23.161 24.8395 22.4805 24 22.4805C23.1605 22.4805 22.48 23.161 22.48 24.0005C22.48 24.8399 23.1605 25.5205 24 25.5205Z" fill="#FFC107" stroke="#BF360C" stroke-width="0.0821"/>
<path d="M24.518 23.6748C24.414 23.6748 24.315 23.7198 24.256 23.8138C24.373 23.9188 24.631 23.9308 24.807 23.8018C24.731 23.7198 24.622 23.6748 24.518 23.6748ZM24.516 23.6988C24.617 23.6968 24.711 23.7438 24.725 23.7898C24.608 23.9188 24.421 23.9068 24.304 23.8138C24.356 23.7318 24.438 23.6998 24.516 23.6988Z" fill="#843511"/>
<path d="M24.538 23.6025C24.386 23.6025 24.351 23.6375 24.281 23.6965C24.211 23.7545 24.176 23.7435 24.164 23.7545C24.152 23.7665 24.164 23.8015 24.187 23.7895C24.21 23.7775 24.257 23.7545 24.327 23.6965C24.397 23.6375 24.467 23.6385 24.537 23.6385C24.747 23.6385 24.864 23.8135 24.888 23.8025C24.912 23.7895 24.772 23.6025 24.538 23.6025Z" fill="#BF360C"/>
<path d="M24.959 23.6732C24.69 23.4392 24.351 23.4042 24.164 23.5792C24.118 23.6402 24.089 23.7062 24.077 23.7742C24.053 23.9072 24.095 24.0512 24.199 24.1982C24.187 24.1982 24.164 24.2102 24.152 24.2212C24.059 24.0432 24.026 23.8612 24.057 23.6882C24.065 23.6432 24.077 23.5982 24.094 23.5552C24.351 23.3452 24.701 23.3222 24.959 23.6732Z" fill="#BF360C"/>
<path d="M24.514 23.8936C24.572 23.8936 24.619 23.8466 24.619 23.7886C24.619 23.7306 24.572 23.6836 24.514 23.6836C24.456 23.6836 24.409 23.7306 24.409 23.7886C24.409 23.8466 24.456 23.8936 24.514 23.8936Z" fill="#BF360C"/>
<path d="M24.819 23.8599C24.62 24.0119 24.421 23.9999 24.305 23.9299C24.188 23.8599 24.188 23.8359 24.211 23.8359C24.234 23.8359 24.258 23.8589 24.351 23.9059C24.444 23.9539 24.585 23.9539 24.819 23.8599Z" fill="#BF360C"/>
<path d="M23.767 24.21C23.717 24.219 23.682 24.263 23.682 24.314C23.682 24.372 23.73 24.418 23.788 24.418C23.822 24.418 23.854 24.402 23.873 24.374C23.913 24.404 23.97 24.408 24 24.408C24.005 24.408 24.011 24.408 24.014 24.408C24.044 24.407 24.1 24.404 24.141 24.374C24.161 24.402 24.192 24.418 24.226 24.418C24.284 24.418 24.332 24.372 24.332 24.314C24.332 24.263 24.296 24.219 24.247 24.21C24.275 24.22 24.293 24.247 24.293 24.277C24.293 24.316 24.262 24.347 24.223 24.347C24.186 24.347 24.155 24.317 24.153 24.28C24.142 24.303 24.096 24.371 24.008 24.374C23.919 24.371 23.874 24.303 23.863 24.28C23.861 24.317 23.83 24.347 23.793 24.347C23.754 24.347 23.723 24.316 23.723 24.277C23.721 24.247 23.739 24.22 23.767 24.21Z" fill="#BF360C"/>
<path d="M23.882 24.5215C23.765 24.5215 23.719 24.6275 23.614 24.6975C23.672 24.6745 23.718 24.6285 23.8 24.5815C23.882 24.5345 23.952 24.5915 23.998 24.5915H24C24.047 24.5915 24.116 24.5345 24.198 24.5815C24.28 24.6285 24.328 24.6745 24.386 24.6975C24.281 24.6275 24.233 24.5215 24.116 24.5215C24.093 24.5215 24.046 24.5345 24 24.5575H23.998C23.951 24.5345 23.905 24.5215 23.882 24.5215Z" fill="#BF360C"/>
<path d="M23.842 24.66C23.796 24.662 23.735 24.671 23.647 24.698C23.858 24.651 23.904 24.722 23.998 24.722H24C24.094 24.722 24.14 24.651 24.351 24.698C24.117 24.628 24.071 24.674 24 24.674H23.998C23.954 24.674 23.919 24.657 23.842 24.66Z" fill="#BF360C"/>
<path d="M23.658 24.6957C23.644 24.6957 23.63 24.6957 23.614 24.6977C23.86 24.7207 23.742 24.8617 23.999 24.8617H24C24.257 24.8617 24.141 24.7207 24.386 24.6977C24.129 24.6747 24.21 24.8257 24 24.8257H23.998C23.801 24.8257 23.862 24.6927 23.658 24.6957Z" fill="#BF360C"/>
<path d="M24.211 25.0762C24.211 24.9602 24.117 24.8662 24.001 24.8662C23.885 24.8662 23.791 24.9602 23.791 25.0762C23.814 24.9792 23.901 24.9102 24.001 24.9102C24.101 24.9092 24.188 24.9782 24.211 25.0762Z" fill="#BF360C"/>
<path d="M23.055 23.6732C23.324 23.4392 23.663 23.4042 23.85 23.5792C23.896 23.6402 23.925 23.7062 23.937 23.7742C23.961 23.9072 23.919 24.0512 23.815 24.1982C23.827 24.1982 23.85 24.2102 23.862 24.2212C23.955 24.0432 23.988 23.8612 23.957 23.6882C23.949 23.6432 23.937 23.5982 23.92 23.5552C23.663 23.3452 23.312 23.3222 23.055 23.6732Z" fill="#BF360C"/>
<path d="M23.476 23.6025C23.628 23.6025 23.663 23.6375 23.733 23.6965C23.803 23.7545 23.838 23.7435 23.85 23.7545C23.862 23.7665 23.85 23.8015 23.827 23.7895C23.804 23.7775 23.757 23.7545 23.687 23.6965C23.617 23.6375 23.547 23.6385 23.477 23.6385C23.267 23.6385 23.15 23.8135 23.126 23.8025C23.102 23.7895 23.242 23.6025 23.476 23.6025Z" fill="#BF360C"/>
<path d="M23.469 23.6748C23.365 23.6748 23.266 23.7198 23.207 23.8138C23.324 23.9188 23.582 23.9308 23.758 23.8018C23.682 23.7198 23.572 23.6748 23.469 23.6748ZM23.467 23.6988C23.568 23.6968 23.662 23.7438 23.676 23.7898C23.559 23.9188 23.372 23.9068 23.255 23.8138C23.306 23.7318 23.388 23.6998 23.467 23.6988Z" fill="#843511"/>
<path d="M23.482 23.8936C23.54 23.8936 23.587 23.8466 23.587 23.7886C23.587 23.7306 23.54 23.6836 23.482 23.6836C23.424 23.6836 23.377 23.7306 23.377 23.7886C23.377 23.8466 23.424 23.8936 23.482 23.8936Z" fill="#BF360C"/>
<path d="M23.195 23.8599C23.394 24.0119 23.593 23.9999 23.709 23.9299C23.826 23.8599 23.826 23.8359 23.803 23.8359C23.78 23.8359 23.756 23.8589 23.663 23.9059C23.569 23.9539 23.429 23.9539 23.195 23.8599Z" fill="#BF360C"/>
</svg>
