<svg width="48" height="48" viewBox="0 0 48 48" fill="none" xmlns="http://www.w3.org/2000/svg">
<path d="M46 10H2V38H46V10Z" fill="#283593"/>
<path d="M13 28L13.593 29.892L15.405 29.188L14.333 30.844L16 31.859L14.069 32.031L14.335 34L13 32.559L11.665 34L11.931 32.031L10 31.859L11.667 30.845L10.595 29.189L12.407 29.893L13 28ZM34.5 31L34.797 31.946L35.703 31.594L35.167 32.422L36 32.929L35.035 33.015L35.168 34L34.5 33.28L33.832 34L33.965 33.015L33 32.929L33.833 32.422L33.297 31.594L34.203 31.946L34.5 31ZM29.465 21.985L29.762 22.931L30.668 22.579L30.132 23.407L30.965 23.914L30 24L30.133 24.985L29.465 24.265L28.797 24.985L28.931 24L27.966 23.914L28.799 23.407L28.263 22.579L29.169 22.931L29.465 21.985ZM34.5 16L34.797 16.946L35.703 16.594L35.167 17.422L36 17.929L35.035 18.015L35.168 19L34.5 18.28L33.832 19L33.965 18.015L33 17.929L33.833 17.422L33.297 16.594L34.203 16.946L34.5 16ZM40.5 21L40.797 21.946L41.703 21.594L41.167 22.422L42 22.929L41.035 23.015L41.168 24L40.5 23.28L39.832 24L39.965 23.015L39 22.929L39.833 22.422L39.297 21.594L40.203 21.946L40.5 21ZM37 25L37.275 25.708L38 25.764L37.444 26.257L37.618 27L37 26.597L36.382 27L36.556 26.257L36 25.764L36.725 25.708L37 25ZM2 11.957L11.459 17.864L12.882 15.485L4.094 10H2V11.957ZM24 10H22.359L13.574 15.484L14.996 17.863L24 12.24V10ZM14.996 15.769L13.574 18.144L22.951 24H24V21.391L14.996 15.769ZM2 21.676V24H3.505L12.882 18.145L11.459 15.77L2 21.676ZM24 15H2V19H24V15ZM11 10V24H15V10H11Z" fill="white"/>
<path d="M8.898 19H10.642L2.632 24H2V23.305L8.898 19ZM9.488 15L2 10.324V11.414L7.746 15H9.488ZM17.558 19L24 23.021V21.933L19.3 19H17.558ZM23.232 10L15.224 15H16.968L24 10.609V10H23.232ZM13.999 10H11.999V16H2V18H11.999V24H13.999V18H24V16H13.999V10Z" fill="#E53935"/>
</svg>
