<svg width="48" height="48" viewBox="0 0 48 48" fill="none" xmlns="http://www.w3.org/2000/svg">
<path d="M46 10H2V38H46V10Z" fill="#3F51B5"/>
<path d="M37 38.002L9 10H37V38.002Z" fill="#FFEB3B"/>
<path d="M7 10L7.617 11.317L9 11.527L8 12.555L8.236 14L7 13.317L5.764 14L6 12.555L5 11.527L6.383 11.317L7 10Z" fill="white"/>
<path d="M11 14L11.617 15.317L13 15.527L12 16.555L12.236 18L11 17.317L9.764 18L10 16.555L9 15.527L10.383 15.317L11 14Z" fill="white"/>
<path d="M15 18L15.617 19.317L17 19.527L16 20.555L16.236 22L15 21.317L13.764 22L14 20.555L13 19.527L14.383 19.317L15 18Z" fill="white"/>
<path d="M19 22L19.617 23.317L21 23.527L20 24.555L20.236 26L19 25.317L17.764 26L18 24.555L17 23.527L18.383 23.317L19 22Z" fill="white"/>
<path d="M23 26L23.617 27.317L25 27.527L24 28.555L24.236 30L23 29.317L21.764 30L22 28.555L21 27.527L22.383 27.317L23 26Z" fill="white"/>
<path d="M27 30L27.617 31.317L29 31.527L28 32.555L28.236 34L27 33.317L25.764 34L26 32.555L25 31.527L26.383 31.317L27 30Z" fill="white"/>
<path d="M31 34L31.617 35.317L33 35.527L32 36.555L32.236 38L31 37.317L29.764 38L30 36.555L29 35.527L30.383 35.317L31 34Z" fill="white"/>
</svg>
