<svg width="48" height="48" viewBox="0 0 48 48" fill="none" xmlns="http://www.w3.org/2000/svg">
<path d="M46 9H2V39H46V9Z" fill="#4CAF50"/>
<path d="M42 24L24 36L6 24L24 12L42 24Z" fill="#FFEB3B"/>
<path d="M24 31C27.866 31 31 27.866 31 24C31 20.134 27.866 17 24 17C20.134 17 17 20.134 17 24C17 27.866 20.134 31 24 31Z" fill="#3F51B5"/>
<path d="M17.805 20.7476C17.466 21.3916 17.229 22.0946 17.105 22.8366C19.359 22.5566 25.486 22.2746 30.639 26.2086C30.87 25.5136 31 24.7716 31 23.9996C31 23.9996 31 23.9956 31 23.9936C26.058 20.6456 20.658 20.5096 17.805 20.7476Z" fill="white"/>
</svg>
