<svg width="48" height="48" viewBox="0 0 48 48" fill="none" xmlns="http://www.w3.org/2000/svg">
<path d="M46 9H2V39H46V9Z" fill="#ECEFF1"/>
<path d="M46 9H36V39H46V9Z" fill="#FF3D00"/>
<path d="M12 9H2V39H12V9Z" fill="#FF3D00"/>
<path d="M25 30H23V33H25V30Z" fill="#FF3D00"/>
<path d="M33 27L31 26L33 23H30L29.959 21.014L27.648 22.173L28 17L26 18L24.007 15L22 18L20 17L20.352 22.144L18.04 21.016C18.04 21.016 17.995 22.99 18 23H15L17 26L15 27L19 29V31C19 31 23.722 30.741 24 30.741C24.278 30.741 29 31 29 31V29L33 27Z" fill="#FF3D00"/>
</svg>
