<svg width="48" height="48" viewBox="0 0 48 48" fill="none" xmlns="http://www.w3.org/2000/svg">
<path d="M2 9V24V39H46V24V9H2Z" fill="#FF3D00"/>
<path d="M10 13.4893L11.181 17.2393H15L11.91 19.3663L13.09 22.9993L10 20.7543L6.91 22.9993L8.09 19.3663L5 17.2393H8.819L10 13.4893Z" fill="#FFEB3B"/>
<path d="M17.474 10.9756L17.828 12.1006H18.974L18.047 12.7366L18.401 13.8276L17.474 13.1536L16.547 13.8276L16.901 12.7366L15.974 12.1006H17.12L17.474 10.9756Z" fill="#FFEB3B"/>
<path d="M17.5 24L17.854 25.125H19L18.073 25.762L18.427 26.853L17.5 26.179L16.573 26.853L16.927 25.762L16 25.125H17.146L17.5 24Z" fill="#FFEB3B"/>
<path d="M21.5 15L21.854 16.125H23L22.073 16.762L22.427 17.853L21.5 17.179L20.573 17.853L20.927 16.762L20 16.125H21.146L21.5 15Z" fill="#FFEB3B"/>
<path d="M21.5 20L21.854 21.125H23L22.073 21.762L22.427 22.853L21.5 22.179L20.573 22.853L20.927 21.762L20 21.125H21.146L21.5 20Z" fill="#FFEB3B"/>
</svg>
