<svg width="48" height="48" viewBox="0 0 48 48" fill="none" xmlns="http://www.w3.org/2000/svg">
<path d="M2 19L46 19L46 9L2 9L2 19Z" fill="#F44336"/>
<path d="M2 39L46 39L46 29L2 29L2 39Z" fill="#0D47A1"/>
<path d="M2 29L46 29L46 19L2 19L2 29Z" fill="#F5F5F5"/>
<path d="M24 31.75C20.879 31.75 18.339 29.21 18.339 26.089V19.25H29.661V26.089C29.661 29.21 27.121 31.75 24 31.75Z" fill="white"/>
<path d="M29.411 19.5V26.089C29.411 29.073 26.984 31.5 24 31.5C21.016 31.5 18.589 29.073 18.589 26.089V19.5H29.411ZM29.911 19H18.089V26.089C18.089 29.354 20.735 32 24 32C27.265 32 29.911 29.354 29.911 26.089V19Z" fill="#F44336"/>
<path d="M29.609 19.334H27.372V21.79H29.609V19.334Z" fill="#F44336"/>
<path d="M25.126 19.334H22.889V21.79H25.126V19.334Z" fill="#F44336"/>
<path d="M20.644 19.334H18.407V21.79H20.644V19.334Z" fill="#F44336"/>
<path d="M29.609 24.2627H27.372V26.7187H29.609V24.2627Z" fill="#F44336"/>
<path d="M25.126 24.2627H22.889V26.7187H25.126V24.2627Z" fill="#F44336"/>
<path d="M20.644 24.2627H18.407V26.7187H20.644V24.2627Z" fill="#F44336"/>
<path d="M27.372 30.5295C28.107 29.9725 28.492 29.4035 28.639 29.1885H27.372V30.5295Z" fill="#F44336"/>
<path d="M20.642 30.5295C19.907 29.9725 19.522 29.4035 19.375 29.1885H20.642V30.5295Z" fill="#F44336"/>
<path d="M22.889 31.5455C22.889 31.5455 23.288 31.6565 24.012 31.6565C24.735 31.6565 25.126 31.6565 25.126 31.6565V29.1885H22.889V31.5455Z" fill="#F44336"/>
<path d="M27.366 26.7197H25.129V29.1757H27.366V26.7197Z" fill="#F44336"/>
<path d="M22.883 26.7197H20.646V29.1757H22.883V26.7197Z" fill="#F44336"/>
<path d="M27.366 21.791H25.129V24.247H27.366V21.791Z" fill="#F44336"/>
<path d="M22.883 21.791H20.646V24.247H22.883V21.791Z" fill="#F44336"/>
<path d="M18.727 18.9904L17.5 16.2164L18.405 14.7344L20.03 15.3384L20.777 18.2744C20.776 18.2754 19.622 18.5754 18.727 18.9904Z" fill="#4FC3F7"/>
<path d="M22.911 17.9242L22.667 14.9022L21.165 14.0342L20.029 15.3382L20.779 18.2712C20.78 18.2712 21.964 17.9792 22.911 17.9242Z" fill="#3F51B5"/>
<path d="M25.092 17.9242L25.336 14.9022L26.838 14.0342L27.974 15.3382L27.224 18.2712C27.224 18.2712 26.04 17.9792 25.092 17.9242Z" fill="#3F51B5"/>
<path d="M25.092 17.9237L25.336 14.9017L24.002 13.8027L22.667 14.9017L22.911 17.9237C22.911 17.9237 24.241 17.8217 25.092 17.9237Z" fill="#4FC3F7"/>
<path d="M29.273 18.9904L30.5 16.2164L29.595 14.7344L27.97 15.3384L27.223 18.2744C27.224 18.2754 28.378 18.5754 29.273 18.9904Z" fill="#4FC3F7"/>
<path d="M29.273 18.9904L30.5 16.2164L29.595 14.7344L27.97 15.3384L27.223 18.2744C27.224 18.2754 28.378 18.5754 29.273 18.9904Z" fill="#4FC3F7"/>
<path d="M20.219 16.0794C21.797 15.7254 22.288 15.6784 22.728 15.6484L22.668 14.9024L22.664 14.9004C22.378 14.9154 21.404 14.9944 20.03 15.3414L20.219 16.0794Z" fill="#F44336"/>
<path d="M22.851 17.1721L22.79 16.4111C21.875 16.4561 20.685 16.7351 20.405 16.8031L20.599 17.5601C21.543 17.2871 22.46 17.1981 22.851 17.1721Z" fill="#F44336"/>
<path d="M27.409 17.5473C28.411 17.8033 29.196 18.1272 29.579 18.3002L30.051 17.2332C28.963 16.7252 27.928 16.4612 27.699 16.4062L27.409 17.5473Z" fill="white"/>
<path d="M27.461 17.3406C27.757 17.4066 28.568 17.6166 29.661 18.1136L29.973 17.4086C29.707 17.2936 28.591 16.8216 27.649 16.6016L27.461 17.3406Z" fill="#F44336"/>
</svg>
