<svg width="48" height="48" viewBox="0 0 48 48" fill="none" xmlns="http://www.w3.org/2000/svg">
<path d="M46 29H2V39H46V29Z" fill="#424242"/>
<path d="M46 19H2V29H46V19Z" fill="#ECEFF1"/>
<path d="M46 9H2V19H46V9Z" fill="#FF3D00"/>
<path d="M28 27C28 27.553 27.553 28 27 28L24 26L21 28C20.447 28 20 27.553 20 27V23C20 22.447 20.447 22 21 22H27C27.553 22 28 22.447 28 23V27Z" fill="#FFB300"/>
<path d="M25 23C25 23.553 24.553 24 24 24C23.447 24 23 23.553 23 23V21C23 20.447 23.447 20 24 20C24.553 20 25 20.447 25 21V23Z" fill="#FFB300"/>
<path d="M23 28H25L24 26L23 28Z" fill="#FFB300"/>
</svg>
