<svg width="24" height="24" viewBox="0 0 24 24" fill="none" xmlns="http://www.w3.org/2000/svg">
<path d="M21.2836 8.27462L15.3328 7.40977L12.6726 2.01681C12.6 1.86915 12.4805 1.74962 12.3328 1.67696C11.9625 1.49415 11.5125 1.64649 11.3273 2.01681L8.66717 7.40977L2.71639 8.27462C2.55233 8.29806 2.40233 8.3754 2.28748 8.49259C2.14864 8.63529 2.07214 8.82728 2.07477 9.02636C2.07741 9.22544 2.15897 9.41533 2.30155 9.55431L6.60701 13.752L5.58983 19.6793C5.56597 19.8172 5.58123 19.959 5.63387 20.0886C5.68651 20.2183 5.77442 20.3306 5.88764 20.4128C6.00086 20.4951 6.13486 20.5439 6.27444 20.5539C6.41401 20.5638 6.55358 20.5345 6.67733 20.4692L12 17.6707L17.3226 20.4692C17.468 20.5465 17.6367 20.5723 17.7984 20.5441C18.2062 20.4738 18.4805 20.0871 18.4101 19.6793L17.393 13.752L21.6984 9.55431C21.8156 9.43946 21.893 9.28946 21.9164 9.1254C21.9797 8.71524 21.6937 8.33556 21.2836 8.27462Z" fill="#67B167"/>
</svg>
