<svg width="24" height="24" viewBox="0 0 24 24" fill="none" xmlns="http://www.w3.org/2000/svg">
  <path d="M21.2836 8.27474L15.3328 7.4099L12.6726 2.01693C12.6 1.86927 12.4805 1.74974 12.3328 1.67708C11.9625 1.49427 11.5125 1.64662 11.3273 2.01693L8.66717 7.4099L2.71639 8.27474C2.55233 8.29818 2.40233 8.37552 2.28748 8.49271C2.14864 8.63541 2.07214 8.8274 2.07477 9.02648C2.07741 9.22556 2.15897 9.41545 2.30155 9.55443L6.60701 13.7521L5.58983 19.6794C5.56597 19.8173 5.58123 19.9591 5.63387 20.0888C5.68651 20.2184 5.77442 20.3307 5.88764 20.413C6.00086 20.4952 6.13486 20.5441 6.27444 20.554C6.41401 20.564 6.55358 20.5346 6.67733 20.4693L12 17.6708L17.3226 20.4693C17.468 20.5466 17.6367 20.5724 17.7984 20.5443C18.2062 20.474 18.4805 20.0872 18.4101 19.6794L17.393 13.7521L21.6984 9.55443C21.8156 9.43958 21.893 9.28958 21.9164 9.12552C21.9797 8.71537 21.6937 8.33568 21.2836 8.27474ZM15.5812 13.1615L16.4273 18.0904L12 15.7654L7.57264 18.0927L8.41873 13.1638L4.83748 9.67162L9.78748 8.95208L12 4.46849L14.2125 8.95208L19.1625 9.67162L15.5812 13.1615Z" fill="yellow"/>
</svg>